<mxfile host="Electron" agent="Mozilla/5.0 (Windows NT 10.0; Win64; x64) AppleWebKit/537.36 (KHTML, like Gecko) draw.io/26.1.1 Chrome/132.0.6834.210 Electron/34.3.3 Safari/537.36" version="26.1.1">
  <diagram name="Página-1" id="1wW5XD3udZvDR7ZAE_lY">
    <mxGraphModel dx="2514" dy="993" grid="1" gridSize="10" guides="1" tooltips="1" connect="1" arrows="1" fold="1" page="1" pageScale="1" pageWidth="827" pageHeight="1169" math="0" shadow="0">
      <root>
        <mxCell id="0" />
        <mxCell id="1" parent="0" />
        <mxCell id="wcNqy-bWd57oN2B6uvtO-94" style="edgeStyle=orthogonalEdgeStyle;rounded=0;orthogonalLoop=1;jettySize=auto;html=1;endArrow=none;startFill=0;" edge="1" parent="1" source="wcNqy-bWd57oN2B6uvtO-50">
          <mxGeometry relative="1" as="geometry">
            <mxPoint x="190" y="660" as="targetPoint" />
          </mxGeometry>
        </mxCell>
        <mxCell id="wcNqy-bWd57oN2B6uvtO-50" value="" style="rounded=0;whiteSpace=wrap;html=1;fillColor=none;" vertex="1" parent="1">
          <mxGeometry x="140" y="530" width="100" height="100" as="geometry" />
        </mxCell>
        <mxCell id="wcNqy-bWd57oN2B6uvtO-5" style="edgeStyle=orthogonalEdgeStyle;rounded=0;orthogonalLoop=1;jettySize=auto;html=1;endArrow=none;startFill=0;strokeWidth=2;" edge="1" parent="1">
          <mxGeometry relative="1" as="geometry">
            <mxPoint x="373.36" y="120" as="sourcePoint" />
            <mxPoint x="373.36" y="180" as="targetPoint" />
            <Array as="points">
              <mxPoint x="373.36" y="160" />
              <mxPoint x="373.36" y="160" />
            </Array>
          </mxGeometry>
        </mxCell>
        <mxCell id="wcNqy-bWd57oN2B6uvtO-6" style="edgeStyle=orthogonalEdgeStyle;rounded=0;orthogonalLoop=1;jettySize=auto;html=1;endArrow=none;startFill=0;endSize=3;startSize=3;strokeWidth=1;" edge="1" parent="1" source="wcNqy-bWd57oN2B6uvtO-1">
          <mxGeometry relative="1" as="geometry">
            <mxPoint x="400" y="170" as="targetPoint" />
            <Array as="points">
              <mxPoint x="400" y="150" />
              <mxPoint x="400" y="150" />
            </Array>
          </mxGeometry>
        </mxCell>
        <mxCell id="wcNqy-bWd57oN2B6uvtO-1" value="Usuário" style="rounded=0;whiteSpace=wrap;html=1;" vertex="1" parent="1">
          <mxGeometry x="315" y="60" width="120" height="60" as="geometry" />
        </mxCell>
        <mxCell id="wcNqy-bWd57oN2B6uvtO-4" style="edgeStyle=orthogonalEdgeStyle;rounded=0;orthogonalLoop=1;jettySize=auto;html=1;endArrow=none;startFill=0;strokeWidth=2;" edge="1" parent="1">
          <mxGeometry relative="1" as="geometry">
            <mxPoint x="376.36" y="120" as="sourcePoint" />
            <mxPoint x="376.36" y="180" as="targetPoint" />
            <Array as="points">
              <mxPoint x="376.36" y="130" />
              <mxPoint x="376.36" y="130" />
            </Array>
          </mxGeometry>
        </mxCell>
        <mxCell id="wcNqy-bWd57oN2B6uvtO-24" style="edgeStyle=orthogonalEdgeStyle;rounded=0;orthogonalLoop=1;jettySize=auto;html=1;exitX=0.053;exitY=0.92;exitDx=0;exitDy=0;exitPerimeter=0;endArrow=none;startFill=0;" edge="1" parent="1" source="wcNqy-bWd57oN2B6uvtO-2">
          <mxGeometry relative="1" as="geometry">
            <mxPoint x="470" y="240" as="targetPoint" />
            <Array as="points">
              <mxPoint x="388" y="200" />
              <mxPoint x="470" y="200" />
            </Array>
          </mxGeometry>
        </mxCell>
        <mxCell id="wcNqy-bWd57oN2B6uvtO-25" style="edgeStyle=orthogonalEdgeStyle;rounded=0;orthogonalLoop=1;jettySize=auto;html=1;exitX=0.027;exitY=0.067;exitDx=0;exitDy=0;exitPerimeter=0;endArrow=none;startFill=0;" edge="1" parent="1" source="wcNqy-bWd57oN2B6uvtO-2">
          <mxGeometry relative="1" as="geometry">
            <mxPoint x="270" y="240" as="targetPoint" />
            <Array as="points">
              <mxPoint x="270" y="199" />
            </Array>
          </mxGeometry>
        </mxCell>
        <mxCell id="wcNqy-bWd57oN2B6uvtO-2" value="" style="triangle;whiteSpace=wrap;html=1;rotation=-90;" vertex="1" parent="1">
          <mxGeometry x="360" y="170" width="30" height="30" as="geometry" />
        </mxCell>
        <mxCell id="wcNqy-bWd57oN2B6uvtO-8" value="" style="endArrow=oval;html=1;rounded=0;endFill=1;endSize=3;" edge="1" parent="1">
          <mxGeometry width="50" height="50" relative="1" as="geometry">
            <mxPoint x="400" y="139.81" as="sourcePoint" />
            <mxPoint x="430" y="139.81" as="targetPoint" />
          </mxGeometry>
        </mxCell>
        <mxCell id="wcNqy-bWd57oN2B6uvtO-16" value="ID" style="edgeLabel;html=1;align=center;verticalAlign=middle;resizable=0;points=[];fontSize=9;labelBackgroundColor=none;" vertex="1" connectable="0" parent="wcNqy-bWd57oN2B6uvtO-8">
          <mxGeometry x="0.7667" relative="1" as="geometry">
            <mxPoint x="8" as="offset" />
          </mxGeometry>
        </mxCell>
        <mxCell id="wcNqy-bWd57oN2B6uvtO-17" value="" style="endArrow=oval;html=1;rounded=0;endFill=0;endSize=3;" edge="1" parent="1">
          <mxGeometry width="50" height="50" relative="1" as="geometry">
            <mxPoint x="400" y="149.81" as="sourcePoint" />
            <mxPoint x="430" y="149.81" as="targetPoint" />
          </mxGeometry>
        </mxCell>
        <mxCell id="wcNqy-bWd57oN2B6uvtO-18" value="&amp;nbsp; &amp;nbsp; &amp;nbsp; &amp;nbsp;Nome" style="edgeLabel;html=1;align=center;verticalAlign=middle;resizable=0;points=[];fontSize=9;labelBackgroundColor=none;" vertex="1" connectable="0" parent="wcNqy-bWd57oN2B6uvtO-17">
          <mxGeometry x="0.7667" relative="1" as="geometry">
            <mxPoint x="8" as="offset" />
          </mxGeometry>
        </mxCell>
        <mxCell id="wcNqy-bWd57oN2B6uvtO-19" value="" style="endArrow=oval;html=1;rounded=0;endFill=0;endSize=3;" edge="1" parent="1">
          <mxGeometry width="50" height="50" relative="1" as="geometry">
            <mxPoint x="400" y="159.81" as="sourcePoint" />
            <mxPoint x="430" y="159.81" as="targetPoint" />
          </mxGeometry>
        </mxCell>
        <mxCell id="wcNqy-bWd57oN2B6uvtO-20" value="&amp;nbsp; &amp;nbsp; &amp;nbsp; &amp;nbsp;Email" style="edgeLabel;html=1;align=center;verticalAlign=middle;resizable=0;points=[];fontSize=9;labelBackgroundColor=none;" vertex="1" connectable="0" parent="wcNqy-bWd57oN2B6uvtO-19">
          <mxGeometry x="0.7667" relative="1" as="geometry">
            <mxPoint x="8" as="offset" />
          </mxGeometry>
        </mxCell>
        <mxCell id="wcNqy-bWd57oN2B6uvtO-21" value="" style="endArrow=oval;html=1;rounded=0;endFill=0;endSize=3;" edge="1" parent="1">
          <mxGeometry width="50" height="50" relative="1" as="geometry">
            <mxPoint x="400" y="170" as="sourcePoint" />
            <mxPoint x="430" y="170" as="targetPoint" />
          </mxGeometry>
        </mxCell>
        <mxCell id="wcNqy-bWd57oN2B6uvtO-22" value="&amp;nbsp; &amp;nbsp; &amp;nbsp; &amp;nbsp; Senha" style="edgeLabel;html=1;align=center;verticalAlign=middle;resizable=0;points=[];fontSize=9;labelBackgroundColor=none;" vertex="1" connectable="0" parent="wcNqy-bWd57oN2B6uvtO-21">
          <mxGeometry x="0.7667" relative="1" as="geometry">
            <mxPoint x="8" as="offset" />
          </mxGeometry>
        </mxCell>
        <mxCell id="wcNqy-bWd57oN2B6uvtO-31" style="edgeStyle=orthogonalEdgeStyle;rounded=0;orthogonalLoop=1;jettySize=auto;html=1;endArrow=none;startFill=0;" edge="1" parent="1" source="wcNqy-bWd57oN2B6uvtO-26">
          <mxGeometry relative="1" as="geometry">
            <mxPoint x="270" y="340" as="targetPoint" />
          </mxGeometry>
        </mxCell>
        <mxCell id="wcNqy-bWd57oN2B6uvtO-82" style="edgeStyle=orthogonalEdgeStyle;rounded=0;orthogonalLoop=1;jettySize=auto;html=1;endArrow=none;startFill=0;" edge="1" parent="1" source="wcNqy-bWd57oN2B6uvtO-26" target="wcNqy-bWd57oN2B6uvtO-81">
          <mxGeometry relative="1" as="geometry" />
        </mxCell>
        <mxCell id="wcNqy-bWd57oN2B6uvtO-26" value="Aluno" style="rounded=0;whiteSpace=wrap;html=1;" vertex="1" parent="1">
          <mxGeometry x="210" y="240" width="120" height="60" as="geometry" />
        </mxCell>
        <mxCell id="wcNqy-bWd57oN2B6uvtO-28" style="edgeStyle=orthogonalEdgeStyle;rounded=0;orthogonalLoop=1;jettySize=auto;html=1;endArrow=none;startFill=0;" edge="1" parent="1" source="wcNqy-bWd57oN2B6uvtO-27">
          <mxGeometry relative="1" as="geometry">
            <mxPoint x="470" y="320" as="targetPoint" />
          </mxGeometry>
        </mxCell>
        <mxCell id="wcNqy-bWd57oN2B6uvtO-108" style="edgeStyle=orthogonalEdgeStyle;rounded=0;orthogonalLoop=1;jettySize=auto;html=1;entryX=0;entryY=0.5;entryDx=0;entryDy=0;endArrow=none;startFill=0;" edge="1" parent="1" source="wcNqy-bWd57oN2B6uvtO-27" target="wcNqy-bWd57oN2B6uvtO-107">
          <mxGeometry relative="1" as="geometry" />
        </mxCell>
        <mxCell id="wcNqy-bWd57oN2B6uvtO-114" style="edgeStyle=orthogonalEdgeStyle;rounded=0;orthogonalLoop=1;jettySize=auto;html=1;entryX=1;entryY=0.5;entryDx=0;entryDy=0;endArrow=none;startFill=0;" edge="1" parent="1" source="wcNqy-bWd57oN2B6uvtO-27" target="wcNqy-bWd57oN2B6uvtO-113">
          <mxGeometry relative="1" as="geometry">
            <Array as="points">
              <mxPoint x="370" y="270" />
              <mxPoint x="370" y="440" />
            </Array>
          </mxGeometry>
        </mxCell>
        <mxCell id="wcNqy-bWd57oN2B6uvtO-27" value="Professor" style="rounded=0;whiteSpace=wrap;html=1;" vertex="1" parent="1">
          <mxGeometry x="410" y="240" width="120" height="60" as="geometry" />
        </mxCell>
        <mxCell id="wcNqy-bWd57oN2B6uvtO-29" value="" style="endArrow=oval;html=1;rounded=0;endFill=0;endSize=3;" edge="1" parent="1">
          <mxGeometry width="50" height="50" relative="1" as="geometry">
            <mxPoint x="470" y="310" as="sourcePoint" />
            <mxPoint x="500" y="310" as="targetPoint" />
          </mxGeometry>
        </mxCell>
        <mxCell id="wcNqy-bWd57oN2B6uvtO-30" value="Especialidade" style="edgeLabel;html=1;align=center;verticalAlign=middle;resizable=0;points=[];fontSize=9;labelBackgroundColor=none;" vertex="1" connectable="0" parent="wcNqy-bWd57oN2B6uvtO-29">
          <mxGeometry x="0.7667" relative="1" as="geometry">
            <mxPoint x="34" as="offset" />
          </mxGeometry>
        </mxCell>
        <mxCell id="wcNqy-bWd57oN2B6uvtO-32" value="" style="endArrow=oval;html=1;rounded=0;endFill=1;endSize=3;" edge="1" parent="1">
          <mxGeometry width="50" height="50" relative="1" as="geometry">
            <mxPoint x="270" y="310" as="sourcePoint" />
            <mxPoint x="300" y="310" as="targetPoint" />
          </mxGeometry>
        </mxCell>
        <mxCell id="wcNqy-bWd57oN2B6uvtO-33" value="&amp;nbsp; &amp;nbsp; &amp;nbsp;N_matricula" style="edgeLabel;html=1;align=center;verticalAlign=middle;resizable=0;points=[];fontSize=9;labelBackgroundColor=none;" vertex="1" connectable="0" parent="wcNqy-bWd57oN2B6uvtO-32">
          <mxGeometry x="0.7667" relative="1" as="geometry">
            <mxPoint x="24" as="offset" />
          </mxGeometry>
        </mxCell>
        <mxCell id="wcNqy-bWd57oN2B6uvtO-34" value="" style="endArrow=oval;html=1;rounded=0;endFill=0;endSize=3;" edge="1" parent="1">
          <mxGeometry width="50" height="50" relative="1" as="geometry">
            <mxPoint x="270" y="320" as="sourcePoint" />
            <mxPoint x="300" y="320" as="targetPoint" />
          </mxGeometry>
        </mxCell>
        <mxCell id="wcNqy-bWd57oN2B6uvtO-35" value="&amp;nbsp; Ano_letivo" style="edgeLabel;html=1;align=center;verticalAlign=middle;resizable=0;points=[];fontSize=9;labelBackgroundColor=none;" vertex="1" connectable="0" parent="wcNqy-bWd57oN2B6uvtO-34">
          <mxGeometry x="0.7667" relative="1" as="geometry">
            <mxPoint x="24" as="offset" />
          </mxGeometry>
        </mxCell>
        <mxCell id="wcNqy-bWd57oN2B6uvtO-36" value="Atividade" style="rounded=0;whiteSpace=wrap;html=1;" vertex="1" parent="1">
          <mxGeometry x="360" y="550" width="120" height="60" as="geometry" />
        </mxCell>
        <mxCell id="wcNqy-bWd57oN2B6uvtO-37" value="" style="endArrow=oval;html=1;rounded=0;endFill=1;endSize=3;" edge="1" parent="1">
          <mxGeometry width="50" height="50" relative="1" as="geometry">
            <mxPoint x="420" y="620" as="sourcePoint" />
            <mxPoint x="450" y="620" as="targetPoint" />
          </mxGeometry>
        </mxCell>
        <mxCell id="wcNqy-bWd57oN2B6uvtO-38" value="ID" style="edgeLabel;html=1;align=center;verticalAlign=middle;resizable=0;points=[];fontSize=9;labelBackgroundColor=none;" vertex="1" connectable="0" parent="wcNqy-bWd57oN2B6uvtO-37">
          <mxGeometry x="0.7667" relative="1" as="geometry">
            <mxPoint x="8" as="offset" />
          </mxGeometry>
        </mxCell>
        <mxCell id="wcNqy-bWd57oN2B6uvtO-39" value="" style="endArrow=oval;html=1;rounded=0;endFill=0;endSize=3;" edge="1" parent="1">
          <mxGeometry width="50" height="50" relative="1" as="geometry">
            <mxPoint x="420" y="630" as="sourcePoint" />
            <mxPoint x="450" y="630" as="targetPoint" />
          </mxGeometry>
        </mxCell>
        <mxCell id="wcNqy-bWd57oN2B6uvtO-40" value="Titulo" style="edgeLabel;html=1;align=center;verticalAlign=middle;resizable=0;points=[];fontSize=9;labelBackgroundColor=none;" vertex="1" connectable="0" parent="wcNqy-bWd57oN2B6uvtO-39">
          <mxGeometry x="0.7667" relative="1" as="geometry">
            <mxPoint x="14" as="offset" />
          </mxGeometry>
        </mxCell>
        <mxCell id="wcNqy-bWd57oN2B6uvtO-41" value="" style="endArrow=oval;html=1;rounded=0;endFill=0;endSize=3;" edge="1" parent="1">
          <mxGeometry width="50" height="50" relative="1" as="geometry">
            <mxPoint x="420" y="640" as="sourcePoint" />
            <mxPoint x="450" y="640" as="targetPoint" />
          </mxGeometry>
        </mxCell>
        <mxCell id="wcNqy-bWd57oN2B6uvtO-42" value="Descrição" style="edgeLabel;html=1;align=center;verticalAlign=middle;resizable=0;points=[];fontSize=9;labelBackgroundColor=none;" vertex="1" connectable="0" parent="wcNqy-bWd57oN2B6uvtO-41">
          <mxGeometry x="0.7667" relative="1" as="geometry">
            <mxPoint x="24" as="offset" />
          </mxGeometry>
        </mxCell>
        <mxCell id="wcNqy-bWd57oN2B6uvtO-43" value="" style="endArrow=oval;html=1;rounded=0;endFill=0;endSize=3;" edge="1" parent="1">
          <mxGeometry width="50" height="50" relative="1" as="geometry">
            <mxPoint x="420" y="650.19" as="sourcePoint" />
            <mxPoint x="450" y="650.19" as="targetPoint" />
          </mxGeometry>
        </mxCell>
        <mxCell id="wcNqy-bWd57oN2B6uvtO-44" value="&amp;nbsp; &amp;nbsp;Data_postagem" style="edgeLabel;html=1;align=center;verticalAlign=middle;resizable=0;points=[];fontSize=9;labelBackgroundColor=none;" vertex="1" connectable="0" parent="wcNqy-bWd57oN2B6uvtO-43">
          <mxGeometry x="0.7667" relative="1" as="geometry">
            <mxPoint x="34" as="offset" />
          </mxGeometry>
        </mxCell>
        <mxCell id="wcNqy-bWd57oN2B6uvtO-45" style="edgeStyle=orthogonalEdgeStyle;rounded=0;orthogonalLoop=1;jettySize=auto;html=1;endArrow=none;startFill=0;endSize=3;startSize=3;strokeWidth=1;" edge="1" parent="1">
          <mxGeometry relative="1" as="geometry">
            <mxPoint x="419.71000000000004" y="660" as="targetPoint" />
            <mxPoint x="419.71000000000004" y="610" as="sourcePoint" />
            <Array as="points">
              <mxPoint x="419.71000000000004" y="640" />
              <mxPoint x="419.71000000000004" y="640" />
            </Array>
          </mxGeometry>
        </mxCell>
        <mxCell id="wcNqy-bWd57oN2B6uvtO-46" value="" style="endArrow=oval;html=1;rounded=0;endFill=0;endSize=3;" edge="1" parent="1">
          <mxGeometry width="50" height="50" relative="1" as="geometry">
            <mxPoint x="420" y="660" as="sourcePoint" />
            <mxPoint x="450" y="660" as="targetPoint" />
          </mxGeometry>
        </mxCell>
        <mxCell id="wcNqy-bWd57oN2B6uvtO-47" value="&amp;nbsp;Prazo_entrega" style="edgeLabel;html=1;align=center;verticalAlign=middle;resizable=0;points=[];fontSize=9;labelBackgroundColor=none;" vertex="1" connectable="0" parent="wcNqy-bWd57oN2B6uvtO-46">
          <mxGeometry x="0.7667" relative="1" as="geometry">
            <mxPoint x="34" as="offset" />
          </mxGeometry>
        </mxCell>
        <mxCell id="wcNqy-bWd57oN2B6uvtO-56" value="Nota" style="rounded=0;whiteSpace=wrap;html=1;" vertex="1" parent="1">
          <mxGeometry x="680" y="50.00000000000004" width="120" height="60" as="geometry" />
        </mxCell>
        <mxCell id="wcNqy-bWd57oN2B6uvtO-57" value="" style="endArrow=oval;html=1;rounded=0;endFill=1;endSize=3;" edge="1" parent="1">
          <mxGeometry width="50" height="50" relative="1" as="geometry">
            <mxPoint x="740" y="120.00000000000004" as="sourcePoint" />
            <mxPoint x="770" y="120.00000000000004" as="targetPoint" />
          </mxGeometry>
        </mxCell>
        <mxCell id="wcNqy-bWd57oN2B6uvtO-58" value="ID" style="edgeLabel;html=1;align=center;verticalAlign=middle;resizable=0;points=[];fontSize=9;labelBackgroundColor=none;" vertex="1" connectable="0" parent="wcNqy-bWd57oN2B6uvtO-57">
          <mxGeometry x="0.7667" relative="1" as="geometry">
            <mxPoint x="8" as="offset" />
          </mxGeometry>
        </mxCell>
        <mxCell id="wcNqy-bWd57oN2B6uvtO-59" value="" style="endArrow=oval;html=1;rounded=0;endFill=0;endSize=3;" edge="1" parent="1">
          <mxGeometry width="50" height="50" relative="1" as="geometry">
            <mxPoint x="740" y="130.00000000000006" as="sourcePoint" />
            <mxPoint x="770" y="130.00000000000006" as="targetPoint" />
          </mxGeometry>
        </mxCell>
        <mxCell id="wcNqy-bWd57oN2B6uvtO-60" value="&amp;nbsp; &amp;nbsp; &amp;nbsp; Materia" style="edgeLabel;html=1;align=center;verticalAlign=middle;resizable=0;points=[];fontSize=9;labelBackgroundColor=none;" vertex="1" connectable="0" parent="wcNqy-bWd57oN2B6uvtO-59">
          <mxGeometry x="0.7667" relative="1" as="geometry">
            <mxPoint x="13" as="offset" />
          </mxGeometry>
        </mxCell>
        <mxCell id="wcNqy-bWd57oN2B6uvtO-61" value="" style="endArrow=oval;html=1;rounded=0;endFill=0;endSize=3;" edge="1" parent="1">
          <mxGeometry width="50" height="50" relative="1" as="geometry">
            <mxPoint x="740" y="140.00000000000006" as="sourcePoint" />
            <mxPoint x="770" y="140.00000000000006" as="targetPoint" />
          </mxGeometry>
        </mxCell>
        <mxCell id="wcNqy-bWd57oN2B6uvtO-62" value="&amp;nbsp; &amp;nbsp;Aluno" style="edgeLabel;html=1;align=center;verticalAlign=middle;resizable=0;points=[];fontSize=9;labelBackgroundColor=none;" vertex="1" connectable="0" parent="wcNqy-bWd57oN2B6uvtO-61">
          <mxGeometry x="0.7667" relative="1" as="geometry">
            <mxPoint x="13" as="offset" />
          </mxGeometry>
        </mxCell>
        <mxCell id="wcNqy-bWd57oN2B6uvtO-63" value="" style="endArrow=oval;html=1;rounded=0;endFill=0;endSize=3;" edge="1" parent="1">
          <mxGeometry width="50" height="50" relative="1" as="geometry">
            <mxPoint x="740" y="150.1900000000001" as="sourcePoint" />
            <mxPoint x="770" y="150.1900000000001" as="targetPoint" />
          </mxGeometry>
        </mxCell>
        <mxCell id="wcNqy-bWd57oN2B6uvtO-64" value="&amp;nbsp; Valor" style="edgeLabel;html=1;align=center;verticalAlign=middle;resizable=0;points=[];fontSize=9;labelBackgroundColor=none;" vertex="1" connectable="0" parent="wcNqy-bWd57oN2B6uvtO-63">
          <mxGeometry x="0.7667" relative="1" as="geometry">
            <mxPoint x="13" as="offset" />
          </mxGeometry>
        </mxCell>
        <mxCell id="wcNqy-bWd57oN2B6uvtO-65" style="edgeStyle=orthogonalEdgeStyle;rounded=0;orthogonalLoop=1;jettySize=auto;html=1;endArrow=none;startFill=0;endSize=3;startSize=3;strokeWidth=1;" edge="1" parent="1">
          <mxGeometry relative="1" as="geometry">
            <mxPoint x="739.71" y="160.00000000000006" as="targetPoint" />
            <mxPoint x="739.71" y="110.00000000000004" as="sourcePoint" />
            <Array as="points">
              <mxPoint x="739.71" y="140.00000000000006" />
              <mxPoint x="739.71" y="140.00000000000006" />
            </Array>
          </mxGeometry>
        </mxCell>
        <mxCell id="wcNqy-bWd57oN2B6uvtO-66" value="" style="endArrow=oval;html=1;rounded=0;endFill=0;endSize=3;" edge="1" parent="1">
          <mxGeometry width="50" height="50" relative="1" as="geometry">
            <mxPoint x="740" y="160.00000000000006" as="sourcePoint" />
            <mxPoint x="770" y="160.00000000000006" as="targetPoint" />
          </mxGeometry>
        </mxCell>
        <mxCell id="wcNqy-bWd57oN2B6uvtO-67" value="&amp;nbsp; &amp;nbsp; &amp;nbsp; ID_atividade" style="edgeLabel;html=1;align=center;verticalAlign=middle;resizable=0;points=[];fontSize=9;labelBackgroundColor=none;" vertex="1" connectable="0" parent="wcNqy-bWd57oN2B6uvtO-66">
          <mxGeometry x="0.7667" relative="1" as="geometry">
            <mxPoint x="23" as="offset" />
          </mxGeometry>
        </mxCell>
        <mxCell id="wcNqy-bWd57oN2B6uvtO-86" style="edgeStyle=orthogonalEdgeStyle;rounded=0;orthogonalLoop=1;jettySize=auto;html=1;entryX=0;entryY=0.5;entryDx=0;entryDy=0;endArrow=none;startFill=0;" edge="1" parent="1" source="wcNqy-bWd57oN2B6uvtO-69" target="wcNqy-bWd57oN2B6uvtO-81">
          <mxGeometry relative="1" as="geometry" />
        </mxCell>
        <mxCell id="wcNqy-bWd57oN2B6uvtO-69" value="&lt;span id=&quot;docs-internal-guid-1d5ce107-7fff-f453-4a10-6d65ccd9637a&quot;&gt;&lt;span style=&quot;background-color: transparent; font-variant-numeric: normal; font-variant-east-asian: normal; font-variant-alternates: normal; font-variant-position: normal; font-variant-emoji: normal; vertical-align: baseline; white-space-collapse: preserve;&quot;&gt;&lt;font face=&quot;Helvetica&quot;&gt;Estatísticas de Desempenho&lt;/font&gt;&lt;/span&gt;&lt;span style=&quot;font-size: 11pt; font-family: Arial, sans-serif; background-color: transparent; font-weight: 700; font-variant-numeric: normal; font-variant-east-asian: normal; font-variant-alternates: normal; font-variant-position: normal; font-variant-emoji: normal; vertical-align: baseline; white-space-collapse: preserve;&quot;&gt;&lt;br&gt;&lt;/span&gt;&lt;/span&gt;" style="rounded=0;whiteSpace=wrap;html=1;" vertex="1" parent="1">
          <mxGeometry x="-160" y="240" width="120" height="60" as="geometry" />
        </mxCell>
        <mxCell id="wcNqy-bWd57oN2B6uvtO-70" value="" style="endArrow=oval;html=1;rounded=0;endFill=1;endSize=3;" edge="1" parent="1">
          <mxGeometry width="50" height="50" relative="1" as="geometry">
            <mxPoint x="-114.85" y="310" as="sourcePoint" />
            <mxPoint x="-84.85" y="310" as="targetPoint" />
          </mxGeometry>
        </mxCell>
        <mxCell id="wcNqy-bWd57oN2B6uvtO-71" value="ID" style="edgeLabel;html=1;align=center;verticalAlign=middle;resizable=0;points=[];fontSize=9;labelBackgroundColor=none;" vertex="1" connectable="0" parent="wcNqy-bWd57oN2B6uvtO-70">
          <mxGeometry x="0.7667" relative="1" as="geometry">
            <mxPoint x="8" as="offset" />
          </mxGeometry>
        </mxCell>
        <mxCell id="wcNqy-bWd57oN2B6uvtO-72" value="" style="endArrow=oval;html=1;rounded=0;endFill=0;endSize=3;" edge="1" parent="1">
          <mxGeometry width="50" height="50" relative="1" as="geometry">
            <mxPoint x="-114.85" y="320" as="sourcePoint" />
            <mxPoint x="-84.85" y="320" as="targetPoint" />
          </mxGeometry>
        </mxCell>
        <mxCell id="wcNqy-bWd57oN2B6uvtO-73" value="&amp;nbsp; &amp;nbsp; &amp;nbsp; &amp;nbsp; &amp;nbsp;ID_aluno" style="edgeLabel;html=1;align=center;verticalAlign=middle;resizable=0;points=[];fontSize=9;labelBackgroundColor=none;" vertex="1" connectable="0" parent="wcNqy-bWd57oN2B6uvtO-72">
          <mxGeometry x="0.7667" relative="1" as="geometry">
            <mxPoint x="13" as="offset" />
          </mxGeometry>
        </mxCell>
        <mxCell id="wcNqy-bWd57oN2B6uvtO-74" value="" style="endArrow=circlePlus;html=1;rounded=0;endFill=0;endSize=2;" edge="1" parent="1">
          <mxGeometry width="50" height="50" relative="1" as="geometry">
            <mxPoint x="-114.85" y="330" as="sourcePoint" />
            <mxPoint x="-84.85" y="330" as="targetPoint" />
          </mxGeometry>
        </mxCell>
        <mxCell id="wcNqy-bWd57oN2B6uvtO-75" value="&amp;nbsp; &amp;nbsp; Média" style="edgeLabel;html=1;align=center;verticalAlign=middle;resizable=0;points=[];fontSize=9;labelBackgroundColor=none;" vertex="1" connectable="0" parent="wcNqy-bWd57oN2B6uvtO-74">
          <mxGeometry x="0.7667" relative="1" as="geometry">
            <mxPoint x="13" as="offset" />
          </mxGeometry>
        </mxCell>
        <mxCell id="wcNqy-bWd57oN2B6uvtO-76" value="" style="endArrow=oval;html=1;rounded=0;endFill=0;endSize=3;" edge="1" parent="1">
          <mxGeometry width="50" height="50" relative="1" as="geometry">
            <mxPoint x="-114.85" y="340.19" as="sourcePoint" />
            <mxPoint x="-84.85" y="340.19" as="targetPoint" />
          </mxGeometry>
        </mxCell>
        <mxCell id="wcNqy-bWd57oN2B6uvtO-77" value="&amp;nbsp; &amp;nbsp; &amp;nbsp; &amp;nbsp; &amp;nbsp; &amp;nbsp; &amp;nbsp; &amp;nbsp; &amp;nbsp; &amp;nbsp; &amp;nbsp; Notas_individuais" style="edgeLabel;html=1;align=center;verticalAlign=middle;resizable=0;points=[];fontSize=9;labelBackgroundColor=none;" vertex="1" connectable="0" parent="wcNqy-bWd57oN2B6uvtO-76">
          <mxGeometry x="0.7667" relative="1" as="geometry">
            <mxPoint x="13" as="offset" />
          </mxGeometry>
        </mxCell>
        <mxCell id="wcNqy-bWd57oN2B6uvtO-78" style="edgeStyle=orthogonalEdgeStyle;rounded=0;orthogonalLoop=1;jettySize=auto;html=1;endArrow=none;startFill=0;endSize=3;startSize=3;strokeWidth=1;" edge="1" parent="1">
          <mxGeometry relative="1" as="geometry">
            <mxPoint x="-115.13999999999996" y="350" as="targetPoint" />
            <mxPoint x="-115.13999999999996" y="300" as="sourcePoint" />
            <Array as="points">
              <mxPoint x="-115.13999999999996" y="330" />
              <mxPoint x="-115.13999999999996" y="330" />
            </Array>
          </mxGeometry>
        </mxCell>
        <mxCell id="wcNqy-bWd57oN2B6uvtO-79" value="" style="endArrow=oval;html=1;rounded=0;endFill=0;endSize=3;" edge="1" parent="1">
          <mxGeometry width="50" height="50" relative="1" as="geometry">
            <mxPoint x="-114.85" y="350" as="sourcePoint" />
            <mxPoint x="-84.85" y="350" as="targetPoint" />
          </mxGeometry>
        </mxCell>
        <mxCell id="wcNqy-bWd57oN2B6uvtO-80" value="&amp;nbsp; &amp;nbsp; &amp;nbsp; &amp;nbsp; Pontos_fracos" style="edgeLabel;html=1;align=center;verticalAlign=middle;resizable=0;points=[];fontSize=9;labelBackgroundColor=none;" vertex="1" connectable="0" parent="wcNqy-bWd57oN2B6uvtO-79">
          <mxGeometry x="0.7667" relative="1" as="geometry">
            <mxPoint x="23" as="offset" />
          </mxGeometry>
        </mxCell>
        <mxCell id="wcNqy-bWd57oN2B6uvtO-81" value="Consulta" style="rhombus;whiteSpace=wrap;html=1;" vertex="1" parent="1">
          <mxGeometry x="50" y="230" width="80" height="80" as="geometry" />
        </mxCell>
        <mxCell id="wcNqy-bWd57oN2B6uvtO-83" value="1" style="text;html=1;align=center;verticalAlign=middle;resizable=0;points=[];autosize=1;strokeColor=none;fillColor=none;" vertex="1" parent="1">
          <mxGeometry x="180" y="250" width="30" height="30" as="geometry" />
        </mxCell>
        <mxCell id="wcNqy-bWd57oN2B6uvtO-84" value="1" style="text;html=1;align=center;verticalAlign=middle;resizable=0;points=[];autosize=1;strokeColor=none;fillColor=none;" vertex="1" parent="1">
          <mxGeometry x="-40" y="240" width="30" height="30" as="geometry" />
        </mxCell>
        <mxCell id="wcNqy-bWd57oN2B6uvtO-89" style="edgeStyle=orthogonalEdgeStyle;rounded=0;orthogonalLoop=1;jettySize=auto;html=1;entryX=0.005;entryY=0.853;entryDx=0;entryDy=0;entryPerimeter=0;endArrow=none;startFill=0;" edge="1" parent="1" source="wcNqy-bWd57oN2B6uvtO-48" target="wcNqy-bWd57oN2B6uvtO-26">
          <mxGeometry relative="1" as="geometry">
            <mxPoint x="180" y="480" as="targetPoint" />
            <Array as="points">
              <mxPoint x="130" y="580" />
              <mxPoint x="130" y="300" />
              <mxPoint x="211" y="300" />
            </Array>
          </mxGeometry>
        </mxCell>
        <mxCell id="wcNqy-bWd57oN2B6uvtO-93" style="edgeStyle=orthogonalEdgeStyle;rounded=0;orthogonalLoop=1;jettySize=auto;html=1;entryX=0;entryY=0.5;entryDx=0;entryDy=0;endArrow=none;startFill=0;" edge="1" parent="1" source="wcNqy-bWd57oN2B6uvtO-48" target="wcNqy-bWd57oN2B6uvtO-36">
          <mxGeometry relative="1" as="geometry">
            <mxPoint x="380" y="645" as="targetPoint" />
          </mxGeometry>
        </mxCell>
        <mxCell id="wcNqy-bWd57oN2B6uvtO-48" value="Entregar" style="rhombus;whiteSpace=wrap;html=1;" vertex="1" parent="1">
          <mxGeometry x="150" y="540" width="80" height="80" as="geometry" />
        </mxCell>
        <mxCell id="wcNqy-bWd57oN2B6uvtO-51" value="Entrega" style="text;html=1;align=center;verticalAlign=middle;resizable=0;points=[];autosize=1;strokeColor=none;fillColor=none;" vertex="1" parent="1">
          <mxGeometry x="170" y="610" width="70" height="30" as="geometry" />
        </mxCell>
        <mxCell id="wcNqy-bWd57oN2B6uvtO-90" value="N" style="text;html=1;align=center;verticalAlign=middle;resizable=0;points=[];autosize=1;strokeColor=none;fillColor=none;" vertex="1" parent="1">
          <mxGeometry x="190" y="280" width="30" height="30" as="geometry" />
        </mxCell>
        <mxCell id="wcNqy-bWd57oN2B6uvtO-91" value="N" style="text;html=1;align=center;verticalAlign=middle;resizable=0;points=[];autosize=1;strokeColor=none;fillColor=none;" vertex="1" parent="1">
          <mxGeometry x="335" y="550" width="30" height="30" as="geometry" />
        </mxCell>
        <mxCell id="wcNqy-bWd57oN2B6uvtO-97" value="" style="endArrow=oval;html=1;rounded=0;endFill=1;endSize=3;" edge="1" parent="1">
          <mxGeometry width="50" height="50" relative="1" as="geometry">
            <mxPoint x="190" y="640" as="sourcePoint" />
            <mxPoint x="220" y="640" as="targetPoint" />
          </mxGeometry>
        </mxCell>
        <mxCell id="wcNqy-bWd57oN2B6uvtO-98" value="&amp;nbsp; &amp;nbsp;Data+" style="edgeLabel;html=1;align=center;verticalAlign=middle;resizable=0;points=[];fontSize=9;labelBackgroundColor=none;" vertex="1" connectable="0" parent="wcNqy-bWd57oN2B6uvtO-97">
          <mxGeometry x="0.7667" relative="1" as="geometry">
            <mxPoint x="13" as="offset" />
          </mxGeometry>
        </mxCell>
        <mxCell id="wcNqy-bWd57oN2B6uvtO-99" value="" style="endArrow=oval;html=1;rounded=0;endFill=1;endSize=3;" edge="1" parent="1">
          <mxGeometry width="50" height="50" relative="1" as="geometry">
            <mxPoint x="190" y="650" as="sourcePoint" />
            <mxPoint x="220" y="650" as="targetPoint" />
          </mxGeometry>
        </mxCell>
        <mxCell id="wcNqy-bWd57oN2B6uvtO-100" value="&amp;nbsp; &amp;nbsp; &amp;nbsp; &amp;nbsp; Arquivo+" style="edgeLabel;html=1;align=center;verticalAlign=middle;resizable=0;points=[];fontSize=9;labelBackgroundColor=none;" vertex="1" connectable="0" parent="wcNqy-bWd57oN2B6uvtO-99">
          <mxGeometry x="0.7667" relative="1" as="geometry">
            <mxPoint x="13" as="offset" />
          </mxGeometry>
        </mxCell>
        <mxCell id="wcNqy-bWd57oN2B6uvtO-107" value="Postar" style="rhombus;whiteSpace=wrap;html=1;" vertex="1" parent="1">
          <mxGeometry x="600" y="320" width="80" height="80" as="geometry" />
        </mxCell>
        <mxCell id="wcNqy-bWd57oN2B6uvtO-109" value="1" style="text;html=1;align=center;verticalAlign=middle;resizable=0;points=[];autosize=1;strokeColor=none;fillColor=none;" vertex="1" parent="1">
          <mxGeometry x="520" y="250" width="30" height="30" as="geometry" />
        </mxCell>
        <mxCell id="wcNqy-bWd57oN2B6uvtO-110" style="edgeStyle=orthogonalEdgeStyle;rounded=0;orthogonalLoop=1;jettySize=auto;html=1;entryX=1;entryY=0.667;entryDx=0;entryDy=0;entryPerimeter=0;endArrow=none;startFill=0;" edge="1" parent="1" source="wcNqy-bWd57oN2B6uvtO-107" target="wcNqy-bWd57oN2B6uvtO-36">
          <mxGeometry relative="1" as="geometry">
            <Array as="points">
              <mxPoint x="720" y="360" />
              <mxPoint x="720" y="480" />
              <mxPoint x="550" y="480" />
            </Array>
          </mxGeometry>
        </mxCell>
        <mxCell id="wcNqy-bWd57oN2B6uvtO-111" value="N" style="text;html=1;align=center;verticalAlign=middle;resizable=0;points=[];autosize=1;strokeColor=none;fillColor=none;" vertex="1" parent="1">
          <mxGeometry x="470" y="560" width="30" height="30" as="geometry" />
        </mxCell>
        <mxCell id="wcNqy-bWd57oN2B6uvtO-118" style="edgeStyle=orthogonalEdgeStyle;rounded=0;orthogonalLoop=1;jettySize=auto;html=1;entryX=0.5;entryY=0;entryDx=0;entryDy=0;endArrow=none;startFill=0;" edge="1" parent="1" source="wcNqy-bWd57oN2B6uvtO-113" target="wcNqy-bWd57oN2B6uvtO-50">
          <mxGeometry relative="1" as="geometry">
            <Array as="points">
              <mxPoint x="190" y="440" />
            </Array>
          </mxGeometry>
        </mxCell>
        <mxCell id="wcNqy-bWd57oN2B6uvtO-113" value="Avaliar" style="rhombus;whiteSpace=wrap;html=1;" vertex="1" parent="1">
          <mxGeometry x="220" y="400" width="80" height="80" as="geometry" />
        </mxCell>
        <mxCell id="wcNqy-bWd57oN2B6uvtO-115" value="1" style="text;html=1;align=center;verticalAlign=middle;resizable=0;points=[];autosize=1;strokeColor=none;fillColor=none;" vertex="1" parent="1">
          <mxGeometry x="390" y="250" width="30" height="30" as="geometry" />
        </mxCell>
        <mxCell id="wcNqy-bWd57oN2B6uvtO-116" value="N" style="text;html=1;align=center;verticalAlign=middle;resizable=0;points=[];autosize=1;strokeColor=none;fillColor=none;" vertex="1" parent="1">
          <mxGeometry x="160" y="500" width="30" height="30" as="geometry" />
        </mxCell>
        <mxCell id="wcNqy-bWd57oN2B6uvtO-128" value="Atribuir" style="rhombus;whiteSpace=wrap;html=1;" vertex="1" parent="1">
          <mxGeometry x="510" y="90" width="80" height="80" as="geometry" />
        </mxCell>
        <mxCell id="wcNqy-bWd57oN2B6uvtO-129" value="" style="endArrow=none;html=1;rounded=0;entryX=0;entryY=0.5;entryDx=0;entryDy=0;" edge="1" parent="1" target="wcNqy-bWd57oN2B6uvtO-128">
          <mxGeometry width="50" height="50" relative="1" as="geometry">
            <mxPoint x="500" y="240" as="sourcePoint" />
            <mxPoint x="550" y="190" as="targetPoint" />
          </mxGeometry>
        </mxCell>
        <mxCell id="wcNqy-bWd57oN2B6uvtO-130" value="1" style="text;html=1;align=center;verticalAlign=middle;resizable=0;points=[];autosize=1;strokeColor=none;fillColor=none;" vertex="1" parent="1">
          <mxGeometry x="480" y="220" width="30" height="30" as="geometry" />
        </mxCell>
        <mxCell id="wcNqy-bWd57oN2B6uvtO-131" style="edgeStyle=orthogonalEdgeStyle;rounded=0;orthogonalLoop=1;jettySize=auto;html=1;entryX=-0.007;entryY=0.582;entryDx=0;entryDy=0;entryPerimeter=0;endArrow=none;startFill=0;" edge="1" parent="1" source="wcNqy-bWd57oN2B6uvtO-128" target="wcNqy-bWd57oN2B6uvtO-56">
          <mxGeometry relative="1" as="geometry" />
        </mxCell>
        <mxCell id="wcNqy-bWd57oN2B6uvtO-132" value="N" style="text;html=1;align=center;verticalAlign=middle;resizable=0;points=[];autosize=1;strokeColor=none;fillColor=none;" vertex="1" parent="1">
          <mxGeometry x="660" y="60" width="30" height="30" as="geometry" />
        </mxCell>
        <mxCell id="wcNqy-bWd57oN2B6uvtO-134" value="" style="rounded=0;whiteSpace=wrap;html=1;fillColor=none;" vertex="1" parent="1">
          <mxGeometry x="500" y="80" width="100" height="100" as="geometry" />
        </mxCell>
        <mxCell id="wcNqy-bWd57oN2B6uvtO-135" value="Atribuição" style="text;html=1;align=center;verticalAlign=middle;resizable=0;points=[];autosize=1;strokeColor=none;fillColor=none;" vertex="1" parent="1">
          <mxGeometry x="530" y="160" width="80" height="30" as="geometry" />
        </mxCell>
        <mxCell id="wcNqy-bWd57oN2B6uvtO-136" value="" style="endArrow=oval;html=1;rounded=0;endFill=1;endSize=3;" edge="1" parent="1">
          <mxGeometry width="50" height="50" relative="1" as="geometry">
            <mxPoint x="550" y="189.77" as="sourcePoint" />
            <mxPoint x="580" y="189.77" as="targetPoint" />
          </mxGeometry>
        </mxCell>
        <mxCell id="wcNqy-bWd57oN2B6uvtO-137" value="&amp;nbsp; &amp;nbsp; &amp;nbsp;Aluno+" style="edgeLabel;html=1;align=center;verticalAlign=middle;resizable=0;points=[];fontSize=9;labelBackgroundColor=none;" vertex="1" connectable="0" parent="wcNqy-bWd57oN2B6uvtO-136">
          <mxGeometry x="0.7667" relative="1" as="geometry">
            <mxPoint x="13" as="offset" />
          </mxGeometry>
        </mxCell>
        <mxCell id="wcNqy-bWd57oN2B6uvtO-138" style="edgeStyle=orthogonalEdgeStyle;rounded=0;orthogonalLoop=1;jettySize=auto;html=1;endArrow=none;startFill=0;" edge="1" parent="1">
          <mxGeometry relative="1" as="geometry">
            <mxPoint x="550" y="210" as="targetPoint" />
            <mxPoint x="550" y="180" as="sourcePoint" />
          </mxGeometry>
        </mxCell>
        <mxCell id="wcNqy-bWd57oN2B6uvtO-139" value="" style="endArrow=oval;html=1;rounded=0;endFill=1;endSize=3;" edge="1" parent="1">
          <mxGeometry width="50" height="50" relative="1" as="geometry">
            <mxPoint x="550" y="199.77" as="sourcePoint" />
            <mxPoint x="580" y="199.77" as="targetPoint" />
          </mxGeometry>
        </mxCell>
        <mxCell id="wcNqy-bWd57oN2B6uvtO-140" value="&amp;nbsp; &amp;nbsp; Atividade+" style="edgeLabel;html=1;align=center;verticalAlign=middle;resizable=0;points=[];fontSize=9;labelBackgroundColor=none;" vertex="1" connectable="0" parent="wcNqy-bWd57oN2B6uvtO-139">
          <mxGeometry x="0.7667" relative="1" as="geometry">
            <mxPoint x="24" as="offset" />
          </mxGeometry>
        </mxCell>
      </root>
    </mxGraphModel>
  </diagram>
</mxfile>
